<?xml version="1.0" encoding="utf-8"?>
<!-- Generator: Adobe Illustrator 24.1.1, SVG Export Plug-In . SVG Version: 6.00 Build 0)  -->
<svg version="1.1" xmlns="http://www.w3.org/2000/svg" xmlns:xlink="http://www.w3.org/1999/xlink" x="0px" y="0px"
	 viewBox="0 0 612 792" style="enable-background:new 0 0 612 792;" xml:space="preserve">
<style type="text/css">
	.Arched_x0020_Green{fill:url(#SVGID_1_);stroke:#FFFFFF;stroke-width:0.25;stroke-miterlimit:1;}
	.st0{fill-rule:evenodd;clip-rule:evenodd;}
	.st1{fill-rule:evenodd;clip-rule:evenodd;fill:#FFFFFF;}
	.st2{fill:#FFFFFF;}
</style>
<linearGradient id="SVGID_1_" gradientUnits="userSpaceOnUse" x1="0" y1="792" x2="0.7071" y2="791.2929">
	<stop  offset="0" style="stop-color:#20AC4B"/>
	<stop  offset="0.9831" style="stop-color:#19361A"/>
</linearGradient>
<g id="Layer_1">
	<polygon class="st0" points="184.2,89.2 151.6,56.3 184.2,23.5 216.8,56.3 	"/>
	<polygon class="st1" points="184.2,83 157.8,56.3 184.2,29.7 210.6,56.3 	"/>
	<polygon class="st0" points="184.2,76.3 164.4,56.3 184.2,36.3 204,56.3 	"/>
	<path class="st1" d="M174.3,56.3l-3,3h5.5l-3.9,3.9l4.2,0l0,4.2l3.9-3.9v5.6l3-3l3,3v-5.6l3.9,3.9l0-4.2l4.3,0l-3.9-3.9h5.5l-3-3
		l3-3h-5.5l3.9-3.9l-4.2,0l0-4.2l-4,4v-5.6l-3,3l-3-3V49l-3.9-3.9l0,4.2l-4.3,0l3.9,3.9h-5.5L174.3,56.3z M186.9,49.8v3.8l3.7,0
		l-2.7,2.7l2.6,2.6h-3.7l0,3.8l-2.6-2.6l-2.7,2.7V59l-3.8,0l2.7-2.7l-2.6-2.7h3.8l0-3.8l2.6,2.6L186.9,49.8z"/>
	<polygon class="st0" points="427.5,89.2 460.1,56.4 427.5,23.5 394.9,56.4 	"/>
	<polygon class="st1" points="427.5,83 453.9,56.4 427.5,29.8 401.1,56.4 	"/>
	<polygon class="st0" points="427.5,76.4 447.3,56.4 427.5,36.4 407.7,56.4 	"/>
	<path class="st1" d="M440.3,53.3h-5.5l3.9-3.9l-4.3,0l0-4.2l-3.9,3.9v-5.5l-3,3l-3-3v5.6l-4-4l0,4.2l-4.2,0l3.9,3.9h-5.5l3,3l-3,3
		h5.5l-3.9,3.9l4.3,0l0,4.2l3.9-3.9v5.6l3-3l3,3v-5.6l3.9,3.9l0-4.2l4.2,0l-3.9-3.9h5.5l-3-3L440.3,53.3z M427.5,52.6l2.6-2.6l0,3.8
		h3.8l-2.6,2.7l2.7,2.7l-3.8,0v3.8l-2.7-2.7l-2.6,2.6l0-3.8h-3.7l2.6-2.6l-2.7-2.7l3.7,0v-3.8L427.5,52.6z"/>
	<polygon class="st0" points="69.7,207.3 37.1,174.4 69.7,141.6 102.3,174.4 	"/>
	<polygon class="st1" points="69.7,201.1 43.3,174.4 69.7,147.8 96.1,174.4 	"/>
	<polygon class="st0" points="69.7,194.4 49.9,174.4 69.7,154.5 89.5,174.4 	"/>
	<path class="st1" d="M59.9,174.4l-3,3h5.5l-3.9,3.9l4.2,0l0,4.2l3.9-3.9v5.6l3-3l3,3v-5.6l3.9,3.9l0-4.2l4.3,0l-3.9-3.9h5.5l-3-3
		l3-3H77l3.9-3.9l-4.2,0l0-4.2l-4,4v-5.6l-3,3l-3-3v5.5l-3.9-3.9l0,4.2l-4.3,0l3.9,3.9h-5.5L59.9,174.4z M72.4,167.9v3.8l3.7,0
		l-2.7,2.7l2.6,2.6h-3.7l0,3.8l-2.6-2.6l-2.7,2.7v-3.8l-3.8,0l2.7-2.7l-2.6-2.7h3.8l0-3.8l2.6,2.6L72.4,167.9z"/>
	<polygon class="st0" points="167.2,56.3 134.7,23.4 69.5,23.4 36.9,56.3 36.9,122 69.5,154.9 102.1,122 102.1,89.1 134.7,89.1 	"/>
	<polygon class="st1" points="160.3,56.7 133.5,29.7 69.9,29.7 43.1,56.7 43.1,120.8 69.9,147.8 96.7,120.8 96.7,83.7 133.5,83.7 	
		"/>
	<polygon class="st0" points="151.6,57.8 131.7,37.4 70.7,37.4 49.8,57.8 49.8,117.3 70.7,136.7 90.6,117.3 90.6,78.2 131.7,78.2 	
		"/>
	<polygon class="st1" points="88,115.5 69.9,97.6 51.8,115.4 51.8,79.2 69.9,61.2 88,79.3 	"/>
	<path class="st1" d="M72.9,53.5c0,3.7-3,6.7-6.7,6.7c-3.7,0-6.7-3-6.7-6.7c0-3.7,3-6.7,6.7-6.7C69.9,46.8,72.9,49.8,72.9,53.5z"/>
	<polygon class="st1" points="127.8,39.5 110,57.6 127.7,75.7 91.6,75.7 73.6,57.6 91.7,39.5 	"/>
	<polygon class="st0" points="54.8,78.7 69.9,94 85,78.7 78.1,71.8 70,80 61.8,71.9 	"/>
	
		<rect x="51.1" y="100.1" transform="matrix(0.7071 -0.7071 0.7071 0.7071 -53.9707 72.2835)" class="st0" width="18.3" height="2.4"/>
	
		<rect x="51.8" y="95.5" transform="matrix(0.7071 -0.7071 0.7071 0.7071 -51.1587 69.8778)" class="st0" width="13.9" height="2.4"/>
	<rect x="52.4" y="90.9" transform="matrix(0.7072 -0.707 0.707 0.7072 -48.3799 67.4358)" class="st0" width="9.6" height="2.4"/>
	<rect x="52.2" y="86.7" transform="matrix(0.7071 -0.7071 0.7071 0.7071 -45.956 64.8809)" class="st0" width="6.3" height="2.4"/>
	<path class="st1" d="M74.6,86c0,2.5-2.1,4.6-4.6,4.6c-2.5,0-4.6-2.1-4.6-4.6c0-2.5,2.1-4.6,4.6-4.6C72.5,81.4,74.6,83.4,74.6,86z"
		/>
	
		<rect x="77.1" y="92.1" transform="matrix(0.7071 -0.7071 0.7071 0.7071 -48.6929 85.0239)" class="st0" width="2.4" height="18.3"/>
	
		<rect x="78.6" y="89.7" transform="matrix(0.7071 -0.7071 0.7071 0.7071 -44.9999 84.7463)" class="st0" width="2.4" height="13.9"/>
	
		<rect x="80.1" y="87.3" transform="matrix(0.7071 -0.7071 0.7071 0.7071 -41.3212 84.4889)" class="st0" width="2.4" height="9.6"/>
	<rect x="82" y="84.7" transform="matrix(0.7071 -0.7072 0.7072 0.7071 -37.7877 84.6025)" class="st0" width="2.4" height="6.3"/>
	<polygon class="st0" points="91.3,72.5 106.6,57.4 91.3,42.3 84.4,49.2 92.6,57.3 84.4,65.5 	"/>
	
		<rect x="112.7" y="57.9" transform="matrix(0.7071 -0.7071 0.7071 0.7071 -14.0576 100.1432)" class="st0" width="2.4" height="18.3"/>
	
		<rect x="108.1" y="61.6" transform="matrix(0.7071 -0.7071 0.7071 0.7071 -16.4689 97.3266)" class="st0" width="2.4" height="13.9"/>
	<rect x="103.5" y="65.3" transform="matrix(0.7072 -0.707 0.707 0.7072 -18.8971 94.5409)" class="st0" width="2.4" height="9.6"/>
	
		<rect x="99.3" y="68.8" transform="matrix(0.7071 -0.7071 0.7071 0.7071 -21.4646 92.1274)" class="st0" width="2.4" height="6.3"/>
	<path class="st1" d="M98.6,52.7c2.5,0,4.6,2.1,4.6,4.6c0,2.5-2.1,4.6-4.6,4.6c-2.6,0-4.6-2.1-4.6-4.6C93.9,54.8,96,52.7,98.6,52.7z
		"/>
	
		<rect x="104.7" y="47.8" transform="matrix(0.7071 -0.7071 0.7071 0.7071 -1.3165 94.8645)" class="st0" width="18.3" height="2.4"/>
	
		<rect x="102.3" y="46.3" transform="matrix(0.7071 -0.7071 0.7071 0.7071 -1.6009 91.1712)" class="st0" width="13.9" height="2.4"/>
	<rect x="99.9" y="44.8" transform="matrix(0.7071 -0.7071 0.7071 0.7071 -1.8462 87.4975)" class="st0" width="9.6" height="2.4"/>
	<rect x="97.3" y="42.9" transform="matrix(0.7071 -0.7071 0.7071 0.7071 -1.7444 83.9653)" class="st0" width="6.3" height="2.4"/>
	<polygon class="st2" points="82.6,123.5 79.9,122.5 84.7,112.3 74.5,117.2 70.7,106.5 66.9,117.2 56.7,112.3 61.5,122.5 
		58.8,123.5 70.7,135.4 	"/>
	<polygon class="st2" points="137.6,45.9 136.6,48.7 126.4,43.8 131.2,54 120.6,57.8 131.2,61.6 126.4,71.8 136.6,67 137.6,69.7 
		149.5,57.8 	"/>
	<polygon class="st0" points="102.4,220.2 69.7,192.7 37,220.2 36.9,220.2 36.9,373.4 37,373.4 69.7,400.9 102.4,373.4 102.6,373.4 
		102.6,220.2 	"/>
	<polygon class="st1" points="99.3,224.4 69.7,198.3 40.2,224.4 40,224.4 40,369.3 40.2,369.3 69.7,395.3 99.3,369.3 99.4,369.3 
		99.4,224.4 	"/>
	<polygon class="st0" points="93.5,230.3 69.6,206.4 45.7,230.3 45.6,230.3 45.6,363.3 45.7,363.3 69.6,387.2 93.5,363.3 
		93.6,363.3 93.6,230.3 	"/>
	<polygon class="st1" points="92.7,361.7 69.7,338.9 46.7,361.5 46.7,315.5 69.7,292.7 92.7,315.7 	"/>
	<polygon class="st0" points="47.6,315.8 69.7,338.1 91.7,315.8 81.7,305.9 69.8,317.8 57.9,305.9 	"/>
	
		<rect x="46.2" y="344.3" transform="matrix(0.7071 -0.7071 0.7071 0.7071 -227.4425 142.7334)" class="st0" width="24.8" height="3.2"/>
	
		<rect x="47.1" y="338.1" transform="matrix(0.7071 -0.7071 0.7071 0.7071 -223.6177 139.4499)" class="st0" width="18.8" height="3.2"/>
	
		<rect x="47.9" y="331.9" transform="matrix(0.7071 -0.7071 0.7071 0.7071 -219.8563 136.1613)" class="st0" width="13.1" height="3.2"/>
	
		<rect x="47.6" y="326.2" transform="matrix(0.7071 -0.7072 0.7072 0.7071 -216.5808 132.697)" class="st0" width="8.6" height="3.2"/>
	
		<rect x="79.2" y="333.5" transform="matrix(0.7071 -0.7071 0.7071 0.7071 -220.9037 158.4542)" class="st0" width="3.2" height="24.8"/>
	
		<rect x="81.3" y="330.2" transform="matrix(0.7071 -0.7071 0.7071 0.7071 -215.9021 158.0765)" class="st0" width="3.2" height="18.8"/>
	
		<rect x="83.3" y="326.9" transform="matrix(0.7071 -0.7071 0.7071 0.7071 -210.9172 157.7422)" class="st0" width="3.2" height="13.1"/>
	
		<rect x="85.9" y="323.5" transform="matrix(0.7072 -0.7071 0.7071 0.7072 -206.1148 157.8575)" class="st0" width="3.2" height="8.6"/>
	<path class="st1" d="M76.5,326.5c0,3.7-3,6.7-6.7,6.7c-3.7,0-6.7-3-6.7-6.7c0-3.7,3-6.7,6.7-6.7C73.5,319.7,76.5,322.7,76.5,326.5z
		"/>
	<polygon class="st1" points="46.7,233.1 69.7,255.8 92.7,233.2 92.7,279.2 69.7,302.1 46.7,279.1 	"/>
	<polygon class="st0" points="91.7,278.9 69.7,256.6 47.6,278.9 57.6,288.9 69.5,277 81.4,288.9 	"/>
	
		<rect x="68.4" y="247.2" transform="matrix(0.7071 -0.7071 0.7071 0.7071 -152.2994 129.9928)" class="st0" width="24.8" height="3.2"/>
	
		<rect x="73.4" y="253.5" transform="matrix(0.7071 -0.7071 0.7071 0.7071 -156.1093 133.2538)" class="st0" width="18.8" height="3.2"/>
	
		<rect x="78.4" y="259.7" transform="matrix(0.7071 -0.7071 0.7071 0.7071 -159.8723 136.5458)" class="st0" width="13.1" height="3.2"/>
	
		<rect x="83.2" y="265.4" transform="matrix(0.7072 -0.707 0.707 0.7072 -163.1521 140.0092)" class="st0" width="8.6" height="3.2"/>
	
		<rect x="56.9" y="236.4" transform="matrix(0.7071 -0.7071 0.7071 0.7071 -158.8222 114.2482)" class="st0" width="3.2" height="24.8"/>
	
		<rect x="54.9" y="245.6" transform="matrix(0.7071 -0.7071 0.7071 0.7071 -163.8292 114.6347)" class="st0" width="3.2" height="18.8"/>
	
		<rect x="52.8" y="254.7" transform="matrix(0.7071 -0.7071 0.7071 0.7071 -168.8115 114.9649)" class="st0" width="3.2" height="13.1"/>
	
		<rect x="50.2" y="262.7" transform="matrix(0.707 -0.7072 0.7072 0.707 -173.6143 114.8468)" class="st0" width="3.2" height="8.6"/>
	<path class="st1" d="M62.8,268.3c0-3.7,3-6.7,6.7-6.7c3.7,0,6.7,3,6.7,6.7c0,3.7-3,6.7-6.7,6.7C65.8,275,62.8,272,62.8,268.3z"/>
	<path class="st1" d="M60.1,297.9c0,3.7-3,6.7-6.7,6.7c-3.7,0-6.7-3-6.7-6.7c0-3.7,3-6.7,6.7-6.7C57.1,291.2,60.1,294.2,60.1,297.9z
		"/>
	<path class="st1" d="M92.9,297.9c0,3.7-3,6.7-6.7,6.7c-3.7,0-6.7-3-6.7-6.7c0-3.7,3-6.7,6.7-6.7C89.9,291.2,92.9,294.2,92.9,297.9z
		"/>
	<path class="st0" d="M76.3,297.9c0,3.7-3,6.7-6.7,6.7c-3.7,0-6.7-3-6.7-6.7c0-3.7,3-6.7,6.7-6.7C73.3,291.2,76.3,294.2,76.3,297.9z
		"/>
	<polygon class="st2" points="81.6,372.8 78.9,371.8 83.8,361.6 73.5,366.5 69.7,355.8 65.9,366.5 55.7,361.6 60.6,371.8 
		57.8,372.8 69.7,384.7 	"/>
	<polygon class="st2" points="57.6,220.6 60.4,221.6 55.5,231.8 65.7,226.9 69.5,237.6 73.3,226.9 83.6,231.8 78.7,221.6 
		81.4,220.6 69.5,208.7 	"/>
	<polygon class="st0" points="230.4,23.6 202.9,56.3 230.4,89 230.4,89.2 383.6,89.2 383.6,89 411.2,56.3 383.6,23.6 383.6,23.5 
		230.4,23.5 	"/>
	<polygon class="st1" points="234.6,26.8 208.5,56.3 234.6,85.9 234.6,86 379.5,86 379.5,85.9 405.5,56.3 379.5,26.8 379.5,26.6 
		234.6,26.6 	"/>
	<polygon class="st0" points="240.5,32.5 216.6,56.4 240.5,80.4 240.5,80.4 373.5,80.4 373.5,80.4 397.4,56.4 373.5,32.5 
		373.5,32.4 240.5,32.4 	"/>
	<polygon class="st1" points="371.9,33.4 349.1,56.4 371.7,79.4 325.7,79.4 302.9,56.4 325.9,33.4 	"/>
	<polygon class="st0" points="326.1,78.4 348.3,56.4 326.1,34.4 316.1,44.4 328,56.3 316.1,68.1 	"/>
	
		<rect x="354.5" y="55.1" transform="matrix(0.7071 -0.7071 0.7071 0.7071 56.5883 271.5823)" class="st0" width="3.2" height="24.8"/>
	
		<rect x="348.3" y="60.1" transform="matrix(0.7071 -0.7071 0.7071 0.7071 53.3111 267.7545)" class="st0" width="3.2" height="18.8"/>
	
		<rect x="342.1" y="65.1" transform="matrix(0.7071 -0.7071 0.7071 0.7071 50.0219 263.9922)" class="st0" width="3.2" height="13.1"/>
	<rect x="336.4" y="69.9" transform="matrix(0.707 -0.7072 0.7072 0.707 46.5531 260.7262)" class="st0" width="3.2" height="8.6"/>
	
		<rect x="343.7" y="43.6" transform="matrix(0.7071 -0.7071 0.7071 0.7071 72.3182 265.0383)" class="st0" width="24.8" height="3.2"/>
	
		<rect x="340.4" y="41.6" transform="matrix(0.7071 -0.7071 0.7071 0.7071 71.9371 260.038)" class="st0" width="18.8" height="3.2"/>
	
		<rect x="337.1" y="39.5" transform="matrix(0.7071 -0.7071 0.7071 0.7071 71.6029 255.0531)" class="st0" width="13.1" height="3.2"/>
	<rect x="333.7" y="36.9" transform="matrix(0.7072 -0.707 0.707 0.7072 71.7224 250.2413)" class="st0" width="8.6" height="3.2"/>
	<path class="st1" d="M336.7,49.5c3.7,0,6.7,3,6.7,6.7c0,3.7-3,6.7-6.7,6.7c-3.7,0-6.7-3-6.7-6.7C329.9,52.5,333,49.5,336.7,49.5z"
		/>
	<polygon class="st1" points="243.3,79.4 266,56.4 243.4,33.4 289.4,33.4 312.3,56.4 289.3,79.4 	"/>
	<polygon class="st0" points="289.1,34.4 266.8,56.4 289.1,78.4 299.1,68.4 287.2,56.5 299.1,44.6 	"/>
	
		<rect x="257.4" y="32.9" transform="matrix(0.7071 -0.7071 0.7071 0.7071 43.8512 196.4346)" class="st0" width="3.2" height="24.8"/>
	
		<rect x="263.7" y="33.8" transform="matrix(0.7071 -0.7071 0.7071 0.7071 47.1127 200.2397)" class="st0" width="3.2" height="18.8"/>
	
		<rect x="269.9" y="34.6" transform="matrix(0.7071 -0.7071 0.7071 0.7071 50.4064 204.0082)" class="st0" width="3.2" height="13.1"/>
	
		<rect x="275.6" y="34.3" transform="matrix(0.7072 -0.7071 0.7071 0.7072 53.8772 207.2806)" class="st0" width="3.2" height="8.6"/>
	
		<rect x="246.6" y="65.9" transform="matrix(0.7071 -0.7071 0.7071 0.7071 28.1087 202.962)" class="st0" width="24.8" height="3.2"/>
	
		<rect x="255.9" y="68" transform="matrix(0.7071 -0.7071 0.7071 0.7071 28.4958 207.9705)" class="st0" width="18.8" height="3.2"/>
	
		<rect x="264.9" y="70.1" transform="matrix(0.7071 -0.7071 0.7071 0.7071 28.8255 212.9473)" class="st0" width="13.1" height="3.2"/>
	
		<rect x="272.9" y="72.6" transform="matrix(0.7071 -0.7072 0.7072 0.7071 28.7001 217.7574)" class="st0" width="8.6" height="3.2"/>
	<path class="st1" d="M278.5,63.2c-3.7,0-6.7-3-6.7-6.7c0-3.7,3-6.7,6.7-6.7c3.7,0,6.7,3,6.7,6.7C285.2,60.2,282.2,63.2,278.5,63.2z
		"/>
	<path class="st1" d="M308.1,65.9c3.7,0,6.7,3,6.7,6.7c0,3.7-3,6.7-6.7,6.7c-3.7,0-6.7-3-6.7-6.7C301.4,68.9,304.4,65.9,308.1,65.9z
		"/>
	<path class="st1" d="M308.1,33.1c3.7,0,6.7,3,6.7,6.7c0,3.7-3,6.7-6.7,6.7c-3.7,0-6.7-3-6.7-6.7C301.4,36.1,304.4,33.1,308.1,33.1z
		"/>
	<path class="st0" d="M308.1,49.8c3.7,0,6.7,3,6.7,6.7c0,3.7-3,6.7-6.7,6.7c-3.7,0-6.7-3-6.7-6.7C301.4,52.8,304.4,49.8,308.1,49.8z
		"/>
	<polygon class="st2" points="383,44.4 382,47.2 371.8,42.3 376.7,52.5 366,56.3 376.7,60.1 371.8,70.4 382,65.5 383,68.2 
		394.9,56.3 	"/>
	<polygon class="st2" points="230.8,68.4 231.8,65.7 242,70.5 237.1,60.3 247.8,56.5 237.1,52.7 242,42.5 231.8,47.3 230.8,44.6 
		218.9,56.5 	"/>
	<polygon class="st0" points="541.9,207.4 574.5,174.5 541.9,141.6 509.3,174.5 	"/>
	<polygon class="st1" points="541.9,201.1 568.3,174.5 541.9,147.9 515.5,174.5 	"/>
	<polygon class="st0" points="541.9,194.5 561.7,174.5 541.9,154.5 522.1,174.5 	"/>
	<path class="st1" d="M554.7,171.5h-5.5l3.9-3.9l-4.3,0l0-4.2l-3.9,3.9v-5.5l-3,3l-3-3v5.6l-4-4l0,4.2l-4.2,0l3.9,3.9h-5.5l3,3l-3,3
		h5.5l-3.9,3.9l4.3,0l0,4.2l3.9-3.9v5.6l3-3l3,3v-5.6l3.9,3.9l0-4.2l4.2,0l-3.9-3.9h5.5l-3-3L554.7,171.5z M541.9,170.7l2.6-2.6
		l0,3.8h3.8l-2.6,2.7l2.7,2.7l-3.8,0v3.8l-2.7-2.7l-2.6,2.6l0-3.8h-3.7l2.6-2.6l-2.7-2.7l3.7,0V168L541.9,170.7z"/>
	<polygon class="st0" points="444.4,56.3 477,23.5 542.2,23.5 574.8,56.3 574.8,122.1 542.2,154.9 509.6,122.1 509.6,89.2 477,89.2 
			"/>
	<polygon class="st1" points="451.4,56.8 478.2,29.7 541.8,29.7 568.6,56.8 568.6,120.8 541.8,147.9 515,120.8 515,83.8 478.2,83.8 
			"/>
	<polygon class="st0" points="460.1,57.9 480,37.4 540.9,37.4 561.8,57.9 561.8,117.4 540.9,136.8 521,117.4 521,78.3 480,78.3 	"/>
	<polygon class="st1" points="523.7,115.6 541.8,97.7 559.9,115.5 559.9,79.3 541.8,61.3 523.7,79.4 	"/>
	<path class="st1" d="M538.7,53.6c0,3.7,3,6.7,6.7,6.7c3.7,0,6.7-3,6.7-6.7c0-3.7-3-6.7-6.7-6.7C541.7,46.9,538.7,49.9,538.7,53.6z"
		/>
	<polygon class="st1" points="483.8,39.6 501.7,57.7 483.9,75.8 520.1,75.8 538.1,57.7 520,39.6 	"/>
	<polygon class="st0" points="556.9,78.8 541.8,94.1 526.7,78.8 533.5,71.9 541.7,80.1 549.8,71.9 	"/>
	
		<rect x="550.2" y="92.2" transform="matrix(0.7071 -0.7071 0.7071 0.7071 89.8282 419.5741)" class="st0" width="2.4" height="18.3"/>
	
		<rect x="551.7" y="89.8" transform="matrix(0.7071 -0.7071 0.7071 0.7071 93.5071 419.2685)" class="st0" width="2.4" height="13.9"/>
	<rect x="553.2" y="87.4" transform="matrix(0.707 -0.7072 0.7072 0.707 97.2359 419.0936)" class="st0" width="2.4" height="9.6"/>
	
		<rect x="555.1" y="84.8" transform="matrix(0.7072 -0.7071 0.7071 0.7072 100.7114 419.1133)" class="st0" width="2.4" height="6.3"/>
	<path class="st1" d="M537.1,86.1c0,2.5,2.1,4.6,4.6,4.6c2.5,0,4.6-2.1,4.6-4.6c0-2.5-2.1-4.6-4.6-4.6
		C539.1,81.4,537.1,83.5,537.1,86.1z"/>
	
		<rect x="524.2" y="100.2" transform="matrix(0.7071 -0.7071 0.7071 0.7071 84.5507 406.833)" class="st0" width="18.3" height="2.4"/>
	
		<rect x="524.9" y="95.6" transform="matrix(0.7071 -0.7071 0.7071 0.7071 87.348 404.3997)" class="st0" width="13.9" height="2.4"/>
	<rect x="525.5" y="91" transform="matrix(0.7071 -0.7071 0.7071 0.7071 90.1477 402.009)" class="st0" width="9.6" height="2.4"/>
	
		<rect x="525.3" y="86.8" transform="matrix(0.7071 -0.7071 0.7071 0.7071 92.5522 399.4063)" class="st0" width="6.3" height="2.4"/>
	<polygon class="st0" points="520.4,72.6 505.1,57.5 520.4,42.4 527.2,49.2 519.1,57.4 527.2,65.6 	"/>
	
		<rect x="488.7" y="65.9" transform="matrix(0.7071 -0.7071 0.7071 0.7071 98.3525 371.6536)" class="st0" width="18.3" height="2.4"/>
	
		<rect x="495.4" y="67.4" transform="matrix(0.7071 -0.7071 0.7071 0.7071 98.6435 375.3554)" class="st0" width="13.9" height="2.4"/>
	<rect x="502.1" y="69" transform="matrix(0.707 -0.7072 0.7072 0.707 98.9167 379.0684)" class="st0" width="9.6" height="2.4"/>
	<rect x="508" y="70.9" transform="matrix(0.7071 -0.7071 0.7071 0.7071 98.7776 382.5519)" class="st0" width="6.3" height="2.4"/>
	<path class="st1" d="M513.1,52.8c-2.5,0-4.6,2.1-4.6,4.6c0,2.5,2.1,4.6,4.6,4.6c2.6,0,4.6-2.1,4.6-4.6
		C517.7,54.9,515.7,52.8,513.1,52.8z"/>
	
		<rect x="496.6" y="39.9" transform="matrix(0.7071 -0.7071 0.7071 0.7071 111.0915 366.3729)" class="st0" width="2.4" height="18.3"/>
	
		<rect x="501.2" y="40.6" transform="matrix(0.7071 -0.7071 0.7071 0.7071 113.5034 369.1875)" class="st0" width="2.4" height="13.9"/>
	
		<rect x="505.8" y="41.2" transform="matrix(0.7071 -0.7071 0.7071 0.7071 115.915 371.9453)" class="st0" width="2.4" height="9.6"/>
	<rect x="510" y="41" transform="matrix(0.7071 -0.7071 0.7071 0.7071 118.4854 374.3728)" class="st0" width="2.4" height="6.3"/>
	<polygon class="st2" points="529.1,123.6 531.8,122.6 526.9,112.4 537.2,117.2 541,106.6 544.8,117.2 555,112.4 550.1,122.6 
		552.9,123.6 541,135.5 	"/>
	<polygon class="st2" points="474.1,46 475,48.7 485.3,43.9 480.4,54.1 491.1,57.9 480.4,61.7 485.3,71.9 475,67.1 474.1,69.8 
		462.2,57.9 	"/>
	<polygon class="st0" points="509.2,220.3 541.9,192.7 574.6,220.3 574.8,220.3 574.8,373.5 574.6,373.5 541.9,401 509.2,373.5 
		509.1,373.5 509.1,220.3 	"/>
	<polygon class="st1" points="512.4,224.4 541.9,198.4 571.5,224.4 571.6,224.4 571.6,369.3 571.5,369.3 541.9,395.4 512.4,369.3 
		512.2,369.3 512.2,224.4 	"/>
	<polygon class="st0" points="518.2,230.4 542.1,206.5 566,230.4 566.1,230.4 566.1,363.4 566,363.4 542.1,387.3 518.2,363.4 
		518.1,363.4 518.1,230.4 	"/>
	<polygon class="st1" points="519,361.7 542,339 565,361.6 565,315.6 542,292.7 519,315.7 	"/>
	<polygon class="st0" points="564,315.9 542,338.2 520,315.9 530,305.9 541.9,317.8 553.8,305.9 	"/>
	
		<rect x="551.5" y="333.6" transform="matrix(0.7071 -0.7071 0.7071 0.7071 -82.6391 492.3886)" class="st0" width="3.2" height="24.8"/>
	
		<rect x="553.5" y="330.3" transform="matrix(0.7071 -0.7071 0.7071 0.7071 -77.624 492.0384)" class="st0" width="3.2" height="18.8"/>
	
		<rect x="555.6" y="327" transform="matrix(0.7071 -0.7071 0.7071 0.7071 -72.6399 491.701)" class="st0" width="3.2" height="13.1"/>
	
		<rect x="558.2" y="323.5" transform="matrix(0.7071 -0.7071 0.7071 0.7071 -67.8559 491.816)" class="st0" width="3.2" height="8.6"/>
	
		<rect x="518.4" y="344.4" transform="matrix(0.7071 -0.7071 0.7071 0.7071 -89.149 476.697)" class="st0" width="24.8" height="3.2"/>
	
		<rect x="519.4" y="338.1" transform="matrix(0.7071 -0.7071 0.7071 0.7071 -85.3394 473.4119)" class="st0" width="18.8" height="3.2"/>
	
		<rect x="520.2" y="331.9" transform="matrix(0.7071 -0.7071 0.7071 0.7071 -81.5774 470.1268)" class="st0" width="13.1" height="3.2"/>
	
		<rect x="519.8" y="326.2" transform="matrix(0.7071 -0.7071 0.7071 0.7071 -78.2825 466.6645)" class="st0" width="8.6" height="3.2"/>
	<path class="st1" d="M535.1,326.5c0,3.7,3,6.7,6.7,6.7c3.7,0,6.7-3,6.7-6.7c0-3.7-3-6.7-6.7-6.7
		C538.2,319.8,535.1,322.8,535.1,326.5z"/>
	<polygon class="st1" points="565,233.1 542,255.9 519,233.3 519,279.3 542,302.1 565,279.1 	"/>
	<polygon class="st0" points="520,278.9 542,256.7 564,278.9 554,288.9 542.1,277 530.2,288.9 	"/>
	
		<rect x="529.3" y="236.5" transform="matrix(0.7071 -0.7071 0.7071 0.7071 -20.507 448.2908)" class="st0" width="3.2" height="24.8"/>
	
		<rect x="527.2" y="245.7" transform="matrix(0.7071 -0.7071 0.7071 0.7071 -25.5069 448.6957)" class="st0" width="3.2" height="18.8"/>
	
		<rect x="525.2" y="254.8" transform="matrix(0.7071 -0.7071 0.7071 0.7071 -30.4961 449.0176)" class="st0" width="3.2" height="13.1"/>
	
		<rect x="522.6" y="262.7" transform="matrix(0.707 -0.7072 0.7072 0.707 -35.2712 448.9271)" class="st0" width="3.2" height="8.6"/>
	
		<rect x="540.8" y="247.3" transform="matrix(0.7071 -0.7071 0.7071 0.7071 -13.9856 464.035)" class="st0" width="24.8" height="3.2"/>
	
		<rect x="545.8" y="253.5" transform="matrix(0.7071 -0.7071 0.7071 0.7071 -17.7997 467.2993)" class="st0" width="18.8" height="3.2"/>
	
		<rect x="550.8" y="259.7" transform="matrix(0.7071 -0.7071 0.7071 0.7071 -21.557 470.5985)" class="st0" width="13.1" height="3.2"/>
	
		<rect x="555.5" y="265.4" transform="matrix(0.7072 -0.707 0.707 0.7072 -24.8646 474.0337)" class="st0" width="8.6" height="3.2"/>
	<path class="st1" d="M548.8,268.3c0-3.7-3-6.7-6.7-6.7c-3.7,0-6.7,3-6.7,6.7c0,3.7,3,6.7,6.7,6.7
		C545.8,275.1,548.8,272,548.8,268.3z"/>
	<path class="st1" d="M551.5,298c0,3.7,3,6.7,6.7,6.7s6.7-3,6.7-6.7c0-3.7-3-6.7-6.7-6.7S551.5,294.3,551.5,298z"/>
	<path class="st1" d="M518.7,298c0,3.7,3,6.7,6.7,6.7c3.7,0,6.7-3,6.7-6.7c0-3.7-3-6.7-6.7-6.7C521.7,291.3,518.7,294.3,518.7,298z"
		/>
	<path class="st0" d="M535.4,298c0,3.7,3,6.7,6.7,6.7c3.7,0,6.7-3,6.7-6.7c0-3.7-3-6.7-6.7-6.7C538.4,291.3,535.4,294.3,535.4,298z"
		/>
	<polygon class="st2" points="530,372.9 532.8,371.9 527.9,361.7 538.1,366.5 541.9,355.9 545.7,366.5 556,361.7 551.1,371.9 
		553.8,372.9 541.9,384.8 	"/>
	<polygon class="st2" points="554,220.7 551.3,221.6 556.1,231.9 545.9,227 542.1,237.7 538.3,227 528.1,231.9 533,221.6 
		530.2,220.7 542.1,208.8 	"/>
	<polygon class="st0" points="184.5,695.9 151.9,728.7 184.5,761.6 217.1,728.7 	"/>
	<polygon class="st1" points="184.5,702.1 158.1,728.7 184.5,755.4 210.9,728.7 	"/>
	<polygon class="st0" points="184.5,708.8 164.7,728.7 184.5,748.7 204.3,728.7 	"/>
	<path class="st1" d="M171.7,731.8h5.5l-3.9,3.9l4.3,0l0,4.2l3.9-3.9v5.5l3-3l3,3V736l4,4l0-4.3l4.2,0l-3.9-3.9h5.5l-3-3l3-3h-5.5
		l3.9-3.9l-4.3,0l0-4.2l-3.9,3.9v-5.6l-3,3l-3-3v5.6l-3.9-3.9l0,4.2l-4.2,0l3.9,3.9h-5.5l3,3L171.7,731.8z M184.5,732.5l-2.6,2.6
		l0-3.8h-3.8l2.6-2.7l-2.7-2.7l3.8,0v-3.8l2.7,2.7l2.6-2.6l0,3.8h3.7l-2.6,2.6l2.7,2.7l-3.7,0v3.8L184.5,732.5z"/>
	<polygon class="st0" points="427.8,695.8 460.4,728.7 427.8,761.5 395.2,728.7 	"/>
	<polygon class="st1" points="427.8,702 454.2,728.7 427.8,755.3 401.4,728.7 	"/>
	<polygon class="st0" points="427.8,708.7 447.6,728.7 427.8,748.6 408,728.7 	"/>
	<path class="st1" d="M437.7,728.7l3-3h-5.5l3.9-3.9l-4.2,0l0-4.2l-3.9,3.9v-5.6l-3,3l-3-3v5.6l-3.9-3.9l0,4.2l-4.3,0l3.9,3.9H415
		l3,3l-3,3h5.5l-3.9,3.9l4.2,0l0,4.2l4-4v5.6l3-3l3,3V736l3.9,3.9l0-4.2l4.3,0l-3.9-3.9h5.5L437.7,728.7z M425.1,735.2v-3.8l-3.7,0
		l2.7-2.7l-2.6-2.6h3.7l0-3.8l2.6,2.6l2.7-2.7v3.8l3.8,0l-2.7,2.7l2.6,2.7h-3.8l0,3.8l-2.6-2.6L425.1,735.2z"/>
	<polygon class="st0" points="70.1,577.8 37.5,610.6 70.1,643.5 102.7,610.6 	"/>
	<polygon class="st1" points="70.1,584 43.7,610.6 70.1,637.3 96.5,610.6 	"/>
	<polygon class="st0" points="70.1,590.6 50.3,610.6 70.1,630.6 89.9,610.6 	"/>
	<path class="st1" d="M57.3,613.7h5.5l-3.9,3.9l4.3,0l0,4.2L67,618v5.5l3-3l3,3v-5.6l4,4l0-4.2l4.2,0l-3.9-3.9h5.5l-3-3l3-3h-5.5
		l3.9-3.9l-4.3,0l0-4.2l-3.9,3.9v-5.6l-3,3l-3-3v5.6l-3.9-3.9l0,4.2l-4.2,0l3.9,3.9h-5.5l3,3L57.3,613.7z M70.1,614.4l-2.6,2.6
		l0-3.8h-3.8l2.6-2.7l-2.7-2.7l3.8,0v-3.8l2.7,2.7l2.6-2.6l0,3.8h3.7l-2.6,2.6l2.7,2.7l-3.7,0v3.8L70.1,614.4z"/>
	<polygon class="st0" points="167.6,728.8 135,761.6 69.8,761.6 37.2,728.8 37.2,663.1 69.8,630.2 102.4,663.1 102.4,695.9 
		135,695.9 	"/>
	<polygon class="st1" points="160.6,728.4 133.8,755.4 70.2,755.4 43.4,728.4 43.4,664.3 70.2,637.3 97,664.3 97,701.3 133.8,701.3 
			"/>
	<polygon class="st0" points="151.9,727.3 132,747.7 71.1,747.7 50.2,727.3 50.2,667.7 71.1,648.3 91,667.7 91,706.8 132,706.8 	"/>
	<polygon class="st1" points="88.3,669.6 70.2,687.4 52.1,669.7 52.1,705.8 70.2,723.8 88.3,705.7 	"/>
	<path class="st1" d="M73.3,731.5c0-3.7-3-6.7-6.7-6.7c-3.7,0-6.7,3-6.7,6.7c0,3.7,3,6.7,6.7,6.7C70.3,738.2,73.3,735.2,73.3,731.5z
		"/>
	<polygon class="st1" points="128.2,745.5 110.3,727.4 128.1,709.3 91.9,709.3 73.9,727.4 92,745.5 	"/>
	<polygon class="st0" points="55.1,706.4 70.2,691.1 85.3,706.4 78.5,713.2 70.3,705 62.2,713.2 	"/>
	<g>
		
			<rect x="59.4" y="674.6" transform="matrix(0.7071 -0.7071 0.7071 0.7071 -465.7417 243.1301)" class="st0" width="2.4" height="18.3"/>
		
			<rect x="57.9" y="681.4" transform="matrix(0.7071 -0.7071 0.7071 0.7071 -469.439 243.4196)" class="st0" width="2.4" height="13.9"/>
		
			<rect x="56.4" y="688.1" transform="matrix(0.7071 -0.7072 0.7072 0.7071 -473.1476 243.7027)" class="st0" width="2.4" height="9.6"/>
		
			<rect x="54.5" y="694" transform="matrix(0.7072 -0.707 0.707 0.7072 -476.5977 243.5032)" class="st0" width="2.4" height="6.3"/>
	</g>
	<path class="st1" d="M74.9,699.1c0-2.5-2.1-4.6-4.6-4.6c-2.5,0-4.6,2.1-4.6,4.6c0,2.6,2.1,4.6,4.6,4.6
		C72.9,703.7,74.9,701.6,74.9,699.1z"/>
	<g>
		
			<rect x="69.5" y="682.6" transform="matrix(0.7071 -0.7071 0.7071 0.7071 -460.4674 255.8756)" class="st0" width="18.3" height="2.4"/>
		
			<rect x="73.2" y="687.2" transform="matrix(0.7072 -0.707 0.707 0.7072 -463.2347 258.2287)" class="st0" width="13.9" height="2.4"/>
		
			<rect x="76.9" y="691.7" transform="matrix(0.7071 -0.7072 0.7072 0.7071 -466.0821 260.7465)" class="st0" width="9.6" height="2.4"/>
		
			<rect x="80.4" y="696" transform="matrix(0.7071 -0.7071 0.7071 0.7071 -468.4809 263.2806)" class="st0" width="6.3" height="2.4"/>
	</g>
	<polygon class="st0" points="91.6,712.5 106.9,727.6 91.6,742.7 84.8,735.9 92.9,727.7 84.8,719.6 	"/>
	<g>
		
			<rect x="105.1" y="716.8" transform="matrix(0.7071 -0.7071 0.7071 0.7071 -474.2661 291.0544)" class="st0" width="18.3" height="2.4"/>
		
			<rect x="102.6" y="715.3" transform="matrix(0.7071 -0.7071 0.7071 0.7071 -474.5508 287.3609)" class="st0" width="13.9" height="2.4"/>
		
			<rect x="100.2" y="713.8" transform="matrix(0.707 -0.7072 0.7072 0.707 -474.8609 283.7681)" class="st0" width="9.6" height="2.4"/>
		
			<rect x="97.7" y="711.9" transform="matrix(0.7071 -0.7071 0.7071 0.7071 -474.6966 280.1496)" class="st0" width="6.3" height="2.4"/>
	</g>
	<path class="st1" d="M98.9,732.3c2.5,0,4.6-2.1,4.6-4.6c0-2.5-2.1-4.6-4.6-4.6c-2.6,0-4.6,2.1-4.6,4.6
		C94.3,730.3,96.3,732.3,98.9,732.3z"/>
	<g>
		
			<rect x="113" y="726.9" transform="matrix(0.7071 -0.7071 0.7071 0.7071 -487.0075 296.3321)" class="st0" width="2.4" height="18.3"/>
		
			<rect x="108.4" y="730.6" transform="matrix(0.7071 -0.7071 0.7071 0.7071 -489.3957 293.4885)" class="st0" width="2.4" height="13.9"/>
		
			<rect x="103.9" y="734.3" transform="matrix(0.7071 -0.7071 0.7071 0.7071 -491.8443 290.744)" class="st0" width="2.4" height="9.6"/>
		
			<rect x="99.6" y="737.8" transform="matrix(0.7072 -0.707 0.707 0.7072 -494.364 288.2502)" class="st0" width="2.4" height="6.3"/>
	</g>
	<polygon class="st2" points="82.9,661.6 80.2,662.5 85.1,672.8 74.8,667.9 71,678.6 67.2,667.9 57,672.8 61.9,662.5 59.1,661.6 
		71,649.7 	"/>
	<polygon class="st2" points="137.9,739.1 137,736.4 126.7,741.3 131.6,731 120.9,727.2 131.6,723.4 126.7,713.2 137,718.1 
		137.9,715.3 149.8,727.2 	"/>
	<polygon class="st0" points="102.8,564.9 70.1,592.4 37.4,564.9 37.2,564.9 37.2,411.6 37.4,411.6 70.1,384.1 102.8,411.6 
		102.9,411.6 102.9,564.9 	"/>
	<polygon class="st1" points="99.6,560.7 70.1,586.7 40.5,560.7 40.4,560.7 40.4,415.8 40.5,415.8 70.1,389.8 99.6,415.8 
		99.8,415.8 99.8,560.7 	"/>
	<polygon class="st0" points="93.8,554.8 69.9,578.7 46,554.8 45.9,554.8 45.9,421.7 46,421.7 69.9,397.8 93.8,421.7 93.9,421.7 
		93.9,554.8 	"/>
	<polygon class="st1" points="93,423.4 70,446.1 47,423.5 47,469.5 70,492.4 93,469.4 	"/>
	<polygon class="st0" points="48,469.2 70,446.9 92,469.2 82,479.2 70.1,467.3 58.2,479.2 	"/>
	
		<rect x="57.3" y="426.8" transform="matrix(0.7071 -0.7071 0.7071 0.7071 -293.2684 170.2614)" class="st0" width="3.2" height="24.8"/>
	
		<rect x="55.3" y="436" transform="matrix(0.7071 -0.7071 0.7071 0.7071 -298.2906 170.6675)" class="st0" width="3.2" height="18.8"/>
	
		<rect x="53.2" y="445.1" transform="matrix(0.7071 -0.7071 0.7071 0.7071 -303.2755 171.0019)" class="st0" width="3.2" height="13.1"/>
	<rect x="50.6" y="453" transform="matrix(0.7072 -0.707 0.707 0.7072 -308.0418 170.8347)" class="st0" width="3.2" height="8.6"/>
	
		<rect x="68.8" y="437.6" transform="matrix(0.7071 -0.7071 0.7071 0.7071 -286.769 186.0375)" class="st0" width="24.8" height="3.2"/>
	
		<rect x="73.8" y="443.8" transform="matrix(0.7071 -0.7071 0.7071 0.7071 -290.5751 189.2944)" class="st0" width="18.8" height="3.2"/>
	
		<rect x="78.8" y="450" transform="matrix(0.7071 -0.7071 0.7071 0.7071 -294.3364 192.5828)" class="st0" width="13.1" height="3.2"/>
	
		<rect x="83.6" y="455.7" transform="matrix(0.707 -0.7072 0.7072 0.707 -297.6482 196.0986)" class="st0" width="8.6" height="3.2"/>
	<path class="st1" d="M76.9,458.6c0-3.7-3-6.7-6.7-6.7c-3.7,0-6.7,3-6.7,6.7c0,3.7,3,6.7,6.7,6.7C73.8,465.3,76.9,462.3,76.9,458.6z
		"/>
	<polygon class="st1" points="47,552 70,529.3 93,551.8 93,505.8 70,483 47,506 	"/>
	<polygon class="st0" points="92,506.2 70,528.5 48,506.2 58,496.2 69.9,508.1 81.8,496.2 	"/>
	
		<rect x="79.5" y="523.8" transform="matrix(0.7071 -0.7071 0.7071 0.7071 -355.402 214.3979)" class="st0" width="3.2" height="24.8"/>
	
		<rect x="81.5" y="520.6" transform="matrix(0.7071 -0.7071 0.7071 0.7071 -350.4166 214.041)" class="st0" width="3.2" height="18.8"/>
	
		<rect x="83.6" y="517.3" transform="matrix(0.7071 -0.7071 0.7071 0.7071 -345.4171 213.6865)" class="st0" width="3.2" height="13.1"/>
	
		<rect x="86.2" y="513.8" transform="matrix(0.707 -0.7072 0.7072 0.707 -340.6534 213.8613)" class="st0" width="3.2" height="8.6"/>
	
		<rect x="46.4" y="534.6" transform="matrix(0.7071 -0.7071 0.7071 0.7071 -361.9323 198.6636)" class="st0" width="24.8" height="3.2"/>
	
		<rect x="47.4" y="528.4" transform="matrix(0.7071 -0.7071 0.7071 0.7071 -358.1065 195.3807)" class="st0" width="18.8" height="3.2"/>
	
		<rect x="48.2" y="522.2" transform="matrix(0.7071 -0.7071 0.7071 0.7071 -354.3597 192.1101)" class="st0" width="13.1" height="3.2"/>
	
		<rect x="47.9" y="516.5" transform="matrix(0.7072 -0.707 0.707 0.7072 -351.0403 188.5908)" class="st0" width="8.6" height="3.2"/>
	<path class="st1" d="M63.2,516.8c0,3.7,3,6.7,6.7,6.7c3.7,0,6.7-3,6.7-6.7c0-3.7-3-6.7-6.7-6.7C66.2,510.1,63.2,513.1,63.2,516.8z"
		/>
	<path class="st1" d="M60.5,487.1c0-3.7-3-6.7-6.7-6.7s-6.7,3-6.7,6.7c0,3.7,3,6.7,6.7,6.7S60.5,490.8,60.5,487.1z"/>
	<path class="st1" d="M93.3,487.1c0-3.7-3-6.7-6.7-6.7c-3.7,0-6.7,3-6.7,6.7c0,3.7,3,6.7,6.7,6.7C90.3,493.9,93.3,490.8,93.3,487.1z
		"/>
	<path class="st0" d="M76.6,487.1c0-3.7-3-6.7-6.7-6.7c-3.7,0-6.7,3-6.7,6.7c0,3.7,3,6.7,6.7,6.7C73.6,493.9,76.6,490.8,76.6,487.1z
		"/>
	<polygon class="st2" points="82,412.3 79.2,413.2 84.1,423.5 73.9,418.6 70.1,429.3 66.3,418.6 56,423.5 60.9,413.2 58.2,412.3 
		70.1,400.4 	"/>
	<polygon class="st2" points="58,564.5 60.7,563.5 55.9,553.3 66.1,558.1 69.9,547.5 73.7,558.1 83.9,553.3 79,563.5 81.8,564.5 
		69.9,576.4 	"/>
	<polygon class="st0" points="230.8,761.4 203.2,728.7 230.8,696 230.8,695.9 384,695.9 384,696 411.5,728.7 384,761.4 384,761.6 
		230.8,761.6 	"/>
	<polygon class="st1" points="234.9,758.3 208.9,728.7 234.9,699.2 234.9,699 379.8,699 379.8,699.2 405.9,728.7 379.8,758.3 
		379.8,758.4 234.9,758.4 	"/>
	<polygon class="st0" points="240.9,752.5 217,728.6 240.9,704.7 240.9,704.6 373.9,704.6 373.9,704.7 397.8,728.6 373.9,752.5 
		373.9,752.6 240.9,752.6 	"/>
	<polygon class="st1" points="372.2,751.7 349.5,728.7 372.1,705.7 326.1,705.7 303.2,728.7 326.2,751.7 	"/>
	<polygon class="st0" points="326.4,706.6 348.7,728.7 326.4,750.7 316.4,740.7 328.3,728.8 316.4,716.9 	"/>
	
		<rect x="344.1" y="716" transform="matrix(0.7071 -0.7071 0.7071 0.7071 -402.9841 462.1754)" class="st0" width="24.8" height="3.2"/>
	
		<rect x="340.8" y="713.9" transform="matrix(0.7071 -0.7071 0.7071 0.7071 -403.3848 457.2125)" class="st0" width="18.8" height="3.2"/>
	
		<rect x="337.5" y="711.8" transform="matrix(0.7071 -0.7071 0.7071 0.7071 -403.7184 452.2251)" class="st0" width="13.1" height="3.2"/>
	
		<rect x="334" y="709.3" transform="matrix(0.7072 -0.707 0.707 0.7072 -403.5399 447.3189)" class="st0" width="8.6" height="3.2"/>
	
		<rect x="354.8" y="727.4" transform="matrix(0.7071 -0.7071 0.7071 0.7071 -418.7435 468.7386)" class="st0" width="3.2" height="24.8"/>
	
		<rect x="348.6" y="732.5" transform="matrix(0.7071 -0.7071 0.7071 0.7071 -422.01 464.9224)" class="st0" width="3.2" height="18.8"/>
	
		<rect x="342.4" y="737.4" transform="matrix(0.7071 -0.7071 0.7071 0.7071 -425.2993 461.1636)" class="st0" width="3.2" height="13.1"/>
	<rect x="336.7" y="742.2" transform="matrix(0.707 -0.7072 0.7072 0.707 -428.8306 458)" class="st0" width="3.2" height="8.6"/>
	<path class="st1" d="M337,735.5c3.7,0,6.7-3,6.7-6.7s-3-6.7-6.7-6.7c-3.7,0-6.7,3-6.7,6.7S333.3,735.5,337,735.5z"/>
	<polygon class="st1" points="243.6,705.7 266.4,728.7 243.8,751.7 289.8,751.7 312.6,728.7 289.6,705.7 	"/>
	<polygon class="st0" points="289.4,750.7 267.2,728.7 289.4,706.6 299.4,716.6 287.5,728.5 299.4,740.4 	"/>
	
		<rect x="247" y="738.2" transform="matrix(0.7071 -0.7071 0.7071 0.7071 -447.1246 400.0883)" class="st0" width="24.8" height="3.2"/>
	
		<rect x="256.2" y="740.2" transform="matrix(0.7071 -0.7071 0.7071 0.7071 -446.7508 405.1208)" class="st0" width="18.8" height="3.2"/>
	
		<rect x="265.3" y="742.3" transform="matrix(0.7071 -0.7071 0.7071 0.7071 -446.405 410.0812)" class="st0" width="13.1" height="3.2"/>
	
		<rect x="273.2" y="744.9" transform="matrix(0.707 -0.7072 0.7072 0.707 -446.597 414.991)" class="st0" width="8.6" height="3.2"/>
	
		<rect x="257.8" y="705.1" transform="matrix(0.7071 -0.7071 0.7071 0.7071 -431.3809 393.5702)" class="st0" width="3.2" height="24.8"/>
	
		<rect x="264" y="706" transform="matrix(0.7071 -0.7071 0.7071 0.7071 -428.1022 397.3579)" class="st0" width="3.2" height="18.8"/>
	
		<rect x="270.2" y="706.9" transform="matrix(0.7071 -0.7071 0.7071 0.7071 -424.8247 401.1428)" class="st0" width="3.2" height="13.1"/>
	
		<rect x="275.9" y="706.5" transform="matrix(0.7072 -0.707 0.707 0.7072 -421.29 404.3179)" class="st0" width="3.2" height="8.6"/>
	<path class="st1" d="M278.8,721.8c-3.7,0-6.7,3-6.7,6.7c0,3.7,3,6.7,6.7,6.7c3.7,0,6.7-3,6.7-6.7
		C285.5,724.8,282.5,721.8,278.8,721.8z"/>
	<path class="st1" d="M308.5,719.1c3.7,0,6.7-3,6.7-6.7c0-3.7-3-6.7-6.7-6.7c-3.7,0-6.7,3-6.7,6.7
		C301.8,716.1,304.8,719.1,308.5,719.1z"/>
	<path class="st1" d="M308.5,751.9c3.7,0,6.7-3,6.7-6.7s-3-6.7-6.7-6.7c-3.7,0-6.7,3-6.7,6.7S304.8,751.9,308.5,751.9z"/>
	<path class="st0" d="M308.5,735.3c3.7,0,6.7-3,6.7-6.7c0-3.7-3-6.7-6.7-6.7c-3.7,0-6.7,3-6.7,6.7
		C301.8,732.3,304.8,735.3,308.5,735.3z"/>
	<polygon class="st2" points="383.4,740.6 382.4,737.9 372.2,742.8 377,732.5 366.3,728.7 377,724.9 372.2,714.7 382.4,719.6 
		383.4,716.8 395.2,728.7 	"/>
	<polygon class="st2" points="231.1,716.7 232.1,719.4 242.3,714.5 237.5,724.8 248.2,728.5 237.5,732.3 242.3,742.6 232.1,737.7 
		231.1,740.4 219.3,728.5 	"/>
	<polygon class="st0" points="542.3,577.7 574.9,610.6 542.3,643.4 509.7,610.6 	"/>
	<polygon class="st1" points="542.3,583.9 568.7,610.6 542.3,637.2 515.9,610.6 	"/>
	<polygon class="st0" points="542.3,590.6 562.1,610.6 542.3,630.5 522.5,610.6 	"/>
	<path class="st1" d="M552.1,610.6l3-3h-5.5l3.9-3.9l-4.2,0l0-4.3l-3.9,3.9v-5.6l-3,3l-3-3v5.6l-3.9-3.9l0,4.2l-4.3,0l3.9,3.9h-5.5
		l3,3l-3,3h5.5l-3.9,3.9l4.2,0l0,4.3l4-4v5.6l3-3l3,3v-5.5l3.9,3.9l0-4.2l4.3,0l-3.9-3.9h5.5L552.1,610.6z M539.6,617.1v-3.8l-3.7,0
		l2.7-2.7l-2.6-2.6h3.7l0-3.8l2.6,2.6l2.7-2.7v3.8l3.8,0l-2.7,2.7l2.6,2.7h-3.8l0,3.8l-2.6-2.6L539.6,617.1z"/>
	<polygon class="st0" points="444.8,728.7 477.3,761.6 542.5,761.6 575.1,728.7 575.1,663 542.5,630.1 509.9,663 509.9,695.9 
		477.3,695.9 	"/>
	<polygon class="st1" points="451.7,728.3 478.5,755.3 542.1,755.3 568.9,728.3 568.9,664.2 542.1,637.2 515.3,664.2 515.3,701.3 
		478.5,701.3 	"/>
	<polygon class="st0" points="460.4,727.2 480.3,747.6 541.3,747.6 562.2,727.2 562.2,667.7 541.3,648.2 521.4,667.7 521.4,706.8 
		480.3,706.8 	"/>
	<polygon class="st1" points="524,669.5 542.1,687.4 560.2,669.6 560.2,705.8 542.1,723.8 524,705.7 	"/>
	<path class="st1" d="M539.1,731.5c0-3.7,3-6.7,6.7-6.7c3.7,0,6.7,3,6.7,6.7s-3,6.7-6.7,6.7C542.1,738.2,539.1,735.2,539.1,731.5z"
		/>
	<polygon class="st1" points="484.2,745.5 502,727.4 484.3,709.3 520.4,709.3 538.4,727.4 520.3,745.5 	"/>
	<polygon class="st0" points="557.2,706.3 542.1,691 527,706.3 533.9,713.1 542,705 550.2,713.1 	"/>
	<g>
		
			<rect x="542.6" y="682.5" transform="matrix(0.7071 -0.7071 0.7071 0.7071 -321.8524 590.3853)" class="st0" width="18.3" height="2.4"/>
		
			<rect x="546.3" y="687.1" transform="matrix(0.7071 -0.7071 0.7071 0.7071 -324.6698 592.8357)" class="st0" width="13.9" height="2.4"/>
		
			<rect x="550" y="691.7" transform="matrix(0.7072 -0.7071 0.7071 0.7072 -327.4333 595.1569)" class="st0" width="9.6" height="2.4"/>
		
			<rect x="553.5" y="695.9" transform="matrix(0.7071 -0.7071 0.7071 0.7071 -329.8681 597.7921)" class="st0" width="6.3" height="2.4"/>
	</g>
	<path class="st1" d="M537.4,699c0-2.5,2.1-4.6,4.6-4.6c2.5,0,4.6,2.1,4.6,4.6c0,2.5-2.1,4.6-4.6,4.6
		C539.5,703.6,537.4,701.6,537.4,699z"/>
	<g>
		
			<rect x="532.5" y="674.6" transform="matrix(0.7071 -0.7071 0.7071 0.7071 -327.13 577.6436)" class="st0" width="2.4" height="18.3"/>
		
			<rect x="531" y="681.4" transform="matrix(0.7071 -0.7071 0.7071 0.7071 -330.8293 577.9724)" class="st0" width="2.4" height="13.9"/>
		
			<rect x="529.5" y="688.1" transform="matrix(0.7072 -0.7071 0.7071 0.7072 -334.4939 578.1178)" class="st0" width="2.4" height="9.6"/>
		
			<rect x="527.6" y="693.9" transform="matrix(0.707 -0.7072 0.7072 0.707 -338.0486 578.1693)" class="st0" width="2.4" height="6.3"/>
	</g>
	<polygon class="st0" points="520.7,712.4 505.4,727.6 520.7,742.7 527.6,735.8 519.4,727.7 527.6,719.5 	"/>
	<g>
		
			<rect x="497" y="708.8" transform="matrix(0.7071 -0.7071 0.7071 0.7071 -361.7648 562.5225)" class="st0" width="2.4" height="18.3"/>
		
			<rect x="501.6" y="709.5" transform="matrix(0.7071 -0.7071 0.7071 0.7071 -359.3479 565.2993)" class="st0" width="2.4" height="13.9"/>
		
			<rect x="506.1" y="710.1" transform="matrix(0.7072 -0.7071 0.7071 0.7072 -356.9179 568.0504)" class="st0" width="2.4" height="9.6"/>
		
			<rect x="510.3" y="709.8" transform="matrix(0.7072 -0.707 0.707 0.7072 -354.344 570.454)" class="st0" width="2.4" height="6.3"/>
	</g>
	<path class="st1" d="M513.4,732.3c-2.5,0-4.6-2.1-4.6-4.6c0-2.5,2.1-4.6,4.6-4.6c2.6,0,4.6,2.1,4.6,4.6
		C518.1,730.2,516,732.3,513.4,732.3z"/>
	<g>
		
			<rect x="489" y="734.8" transform="matrix(0.7071 -0.7071 0.7071 0.7071 -374.5074 567.8068)" class="st0" width="18.3" height="2.4"/>
		
			<rect x="495.8" y="736.3" transform="matrix(0.7071 -0.7071 0.7071 0.7071 -374.2221 571.4972)" class="st0" width="13.9" height="2.4"/>
		
			<rect x="502.5" y="737.8" transform="matrix(0.707 -0.7072 0.7072 0.707 -373.9884 575.246)" class="st0" width="9.6" height="2.4"/>
		
			<rect x="508.4" y="739.7" transform="matrix(0.707 -0.7072 0.7072 0.707 -374.0927 578.7975)" class="st0" width="6.3" height="2.4"/>
	</g>
	<polygon class="st2" points="529.4,661.5 532.1,662.5 527.3,672.7 537.5,667.8 541.3,678.5 545.1,667.8 555.3,672.7 550.5,662.5 
		553.2,661.5 541.3,649.6 	"/>
	<polygon class="st2" points="474.4,739.1 475.4,736.3 485.6,741.2 480.8,731 491.4,727.2 480.8,723.4 485.6,713.1 475.4,718 
		474.4,715.3 462.5,727.2 	"/>
	<polygon class="st0" points="509.6,564.8 542.3,592.3 575,564.8 575.1,564.8 575.1,411.6 575,411.6 542.3,384 509.6,411.6 
		509.4,411.6 509.4,564.8 	"/>
	<polygon class="st1" points="512.7,560.6 542.3,586.7 571.8,560.6 572,560.6 572,415.7 571.8,415.7 542.3,389.7 512.7,415.7 
		512.6,415.7 512.6,560.6 	"/>
	<polygon class="st0" points="518.5,554.7 542.4,578.6 566.3,554.7 566.4,554.7 566.4,421.7 566.3,421.7 542.4,397.8 518.5,421.7 
		518.4,421.7 518.4,554.7 	"/>
	<polygon class="st1" points="519.3,423.3 542.3,446.1 565.3,423.5 565.3,469.5 542.3,492.3 519.3,469.3 	"/>
	<polygon class="st0" points="564.4,469.1 542.3,446.9 520.3,469.1 530.3,479.1 542.2,467.2 554.1,479.1 	"/>
	
		<rect x="541" y="437.5" transform="matrix(0.7071 -0.7071 0.7071 0.7071 -148.3877 519.9917)" class="st0" width="24.8" height="3.2"/>
	
		<rect x="546.1" y="443.7" transform="matrix(0.7071 -0.7071 0.7071 0.7071 -152.2054 523.2216)" class="st0" width="18.8" height="3.2"/>
	
		<rect x="551" y="449.9" transform="matrix(0.7071 -0.7071 0.7071 0.7071 -155.967 526.5072)" class="st0" width="13.1" height="3.2"/>
	
		<rect x="555.8" y="455.6" transform="matrix(0.707 -0.7072 0.7072 0.707 -159.251 530.0505)" class="st0" width="8.6" height="3.2"/>
	
		<rect x="529.6" y="426.7" transform="matrix(0.7071 -0.7071 0.7071 0.7071 -154.9162 504.186)" class="st0" width="3.2" height="24.8"/>
	
		<rect x="527.5" y="435.9" transform="matrix(0.7071 -0.7071 0.7071 0.7071 -159.9214 504.5891)" class="st0" width="3.2" height="18.8"/>
	
		<rect x="525.4" y="445" transform="matrix(0.7071 -0.7071 0.7071 0.7071 -164.9061 504.9263)" class="st0" width="3.2" height="13.1"/>
	
		<rect x="522.9" y="452.9" transform="matrix(0.7072 -0.707 0.707 0.7072 -169.6999 504.7322)" class="st0" width="3.2" height="8.6"/>
	<path class="st1" d="M535.5,458.5c0-3.7,3-6.7,6.7-6.7c3.7,0,6.7,3,6.7,6.7c0,3.7-3,6.7-6.7,6.7
		C538.5,465.3,535.5,462.2,535.5,458.5z"/>
	<polygon class="st1" points="565.3,551.9 542.3,529.2 519.3,551.8 519.3,505.8 542.3,482.9 565.3,505.9 	"/>
	<polygon class="st0" points="520.3,506.1 542.3,528.4 564.4,506.1 554.4,496.1 542.5,508 530.6,496.1 	"/>
	
		<rect x="518.8" y="534.6" transform="matrix(0.7071 -0.7071 0.7071 0.7071 -223.525 532.6998)" class="st0" width="24.8" height="3.2"/>
	
		<rect x="519.8" y="528.3" transform="matrix(0.7071 -0.7071 0.7071 0.7071 -219.7116 529.4105)" class="st0" width="18.8" height="3.2"/>
	
		<rect x="520.6" y="522.1" transform="matrix(0.7071 -0.7071 0.7071 0.7071 -215.9503 526.1224)" class="st0" width="13.1" height="3.2"/>
	
		<rect x="520.3" y="516.4" transform="matrix(0.7072 -0.707 0.707 0.7072 -212.6604 522.5775)" class="st0" width="8.6" height="3.2"/>
	
		<rect x="551.9" y="523.8" transform="matrix(0.7071 -0.7071 0.7071 0.7071 -217.0028 548.4238)" class="st0" width="3.2" height="24.8"/>
	
		<rect x="553.9" y="520.5" transform="matrix(0.7071 -0.7071 0.7071 0.7071 -211.9961 548.0406)" class="st0" width="3.2" height="18.8"/>
	
		<rect x="556" y="517.2" transform="matrix(0.7071 -0.7071 0.7071 0.7071 -207.0112 547.7034)" class="st0" width="3.2" height="13.1"/>
	
		<rect x="558.6" y="513.7" transform="matrix(0.707 -0.7072 0.7072 0.707 -202.2186 547.903)" class="st0" width="3.2" height="8.6"/>
	<path class="st1" d="M549.2,516.7c0,3.7-3,6.7-6.7,6.7c-3.7,0-6.7-3-6.7-6.7c0-3.7,3-6.7,6.7-6.7C546.2,510,549.2,513,549.2,516.7z
		"/>
	<path class="st1" d="M551.9,487.1c0-3.7,3-6.7,6.7-6.7s6.7,3,6.7,6.7c0,3.7-3,6.7-6.7,6.7S551.9,490.8,551.9,487.1z"/>
	<path class="st1" d="M519.1,487.1c0-3.7,3-6.7,6.7-6.7s6.7,3,6.7,6.7c0,3.7-3,6.7-6.7,6.7S519.1,490.8,519.1,487.1z"/>
	<path class="st0" d="M535.7,487.1c0-3.7,3-6.7,6.7-6.7c3.7,0,6.7,3,6.7,6.7c0,3.7-3,6.7-6.7,6.7
		C538.7,493.8,535.7,490.8,535.7,487.1z"/>
	<polygon class="st2" points="530.4,412.2 533.1,413.2 528.3,423.4 538.5,418.5 542.3,429.2 546.1,418.5 556.3,423.4 551.4,413.2 
		554.2,412.2 542.3,400.3 	"/>
	<polygon class="st2" points="554.4,564.4 551.6,563.4 556.5,553.2 546.3,558.1 542.5,547.4 538.7,558.1 528.4,553.2 533.3,563.4 
		530.6,564.4 542.5,576.3 	"/>
	<circle class="st0" cx="69.7" cy="392.8" r="20"/>
	<circle class="st0" cx="543.2" cy="392.8" r="20"/>
</g>
<g id="Layer_2">
</g>
<g id="Layer_3">
</g>
<g id="Layer_4">
</g>
<g id="Layer_5">
</g>
</svg>
